<mxfile host="app.diagrams.net" modified="2024-07-18T04:48:23.585Z" agent="Mozilla/5.0 (Windows NT 10.0; Win64; x64) AppleWebKit/537.36 (KHTML, like Gecko) Chrome/126.0.0.0 Safari/537.36" etag="ceCpm2-Fq9Jgwi46gyFy" version="24.7.1" type="device">
  <diagram name="Page-1" id="V_YeHFoTBKTuIHgPI9a_">
    <mxGraphModel dx="1950" dy="543" grid="1" gridSize="10" guides="1" tooltips="1" connect="1" arrows="1" fold="1" page="1" pageScale="1" pageWidth="850" pageHeight="1100" math="0" shadow="0">
      <root>
        <mxCell id="0" />
        <mxCell id="1" parent="0" />
        <mxCell id="1aZD1OsogRXmvRE20P_B-30" style="edgeStyle=orthogonalEdgeStyle;rounded=0;orthogonalLoop=1;jettySize=auto;html=1;" parent="1" source="1aZD1OsogRXmvRE20P_B-1" target="1aZD1OsogRXmvRE20P_B-4" edge="1">
          <mxGeometry relative="1" as="geometry" />
        </mxCell>
        <mxCell id="1aZD1OsogRXmvRE20P_B-38" style="edgeStyle=orthogonalEdgeStyle;rounded=0;orthogonalLoop=1;jettySize=auto;html=1;entryX=0.75;entryY=0;entryDx=0;entryDy=0;" parent="1" source="1aZD1OsogRXmvRE20P_B-1" target="1aZD1OsogRXmvRE20P_B-4" edge="1">
          <mxGeometry relative="1" as="geometry">
            <Array as="points">
              <mxPoint x="644" y="270" />
            </Array>
          </mxGeometry>
        </mxCell>
        <mxCell id="yD9X1X1SuLmKjkcs-DvC-9" style="edgeStyle=orthogonalEdgeStyle;rounded=0;orthogonalLoop=1;jettySize=auto;html=1;entryX=1;entryY=0.25;entryDx=0;entryDy=0;" parent="1" edge="1">
          <mxGeometry relative="1" as="geometry">
            <mxPoint x="422.4694117647061" y="238.71" as="sourcePoint" />
            <mxPoint x="664.94" y="331.21" as="targetPoint" />
            <Array as="points">
              <mxPoint x="423" y="219" />
              <mxPoint x="665" y="219" />
            </Array>
          </mxGeometry>
        </mxCell>
        <mxCell id="1aZD1OsogRXmvRE20P_B-1" value="Khách hàng" style="rounded=0;whiteSpace=wrap;html=1;" parent="1" vertex="1">
          <mxGeometry x="365" y="240" width="115" height="40" as="geometry" />
        </mxCell>
        <mxCell id="1aZD1OsogRXmvRE20P_B-2" value="Chủ trọ" style="rounded=0;whiteSpace=wrap;html=1;" parent="1" vertex="1">
          <mxGeometry x="60" y="210" width="100" height="50" as="geometry" />
        </mxCell>
        <mxCell id="1aZD1OsogRXmvRE20P_B-56" style="edgeStyle=orthogonalEdgeStyle;rounded=0;orthogonalLoop=1;jettySize=auto;html=1;entryX=1;entryY=0.5;entryDx=0;entryDy=0;" parent="1" source="1aZD1OsogRXmvRE20P_B-4" target="1aZD1OsogRXmvRE20P_B-50" edge="1">
          <mxGeometry relative="1" as="geometry">
            <Array as="points">
              <mxPoint x="730" y="345" />
              <mxPoint x="730" y="465" />
            </Array>
          </mxGeometry>
        </mxCell>
        <mxCell id="1aZD1OsogRXmvRE20P_B-58" style="edgeStyle=orthogonalEdgeStyle;rounded=0;orthogonalLoop=1;jettySize=auto;html=1;entryX=1;entryY=0.5;entryDx=0;entryDy=0;" parent="1" source="1aZD1OsogRXmvRE20P_B-4" target="1aZD1OsogRXmvRE20P_B-52" edge="1">
          <mxGeometry relative="1" as="geometry">
            <Array as="points">
              <mxPoint x="750" y="345" />
              <mxPoint x="750" y="500" />
            </Array>
          </mxGeometry>
        </mxCell>
        <mxCell id="1aZD1OsogRXmvRE20P_B-4" value="1.0" style="swimlane;fontStyle=0;childLayout=stackLayout;horizontal=1;startSize=20;fillColor=#ffffff;horizontalStack=0;resizeParent=1;resizeParentMax=0;resizeLast=0;collapsible=0;marginBottom=0;swimlaneFillColor=#ffffff;rounded=1;glass=0;arcSize=50;" parent="1" vertex="1">
          <mxGeometry x="580" y="320" width="85" height="50" as="geometry" />
        </mxCell>
        <mxCell id="1aZD1OsogRXmvRE20P_B-12" value="Quản lí thuê nhà" style="text;html=1;align=center;verticalAlign=middle;whiteSpace=wrap;rounded=0;" parent="1aZD1OsogRXmvRE20P_B-4" vertex="1">
          <mxGeometry y="20" width="85" height="30" as="geometry" />
        </mxCell>
        <mxCell id="1aZD1OsogRXmvRE20P_B-13" value="4.0" style="swimlane;fontStyle=0;childLayout=stackLayout;horizontal=1;startSize=20;fillColor=#ffffff;horizontalStack=0;resizeParent=1;resizeParentMax=0;resizeLast=0;collapsible=0;marginBottom=0;swimlaneFillColor=#ffffff;rounded=1;glass=0;arcSize=50;" parent="1" vertex="1">
          <mxGeometry x="185" y="519" width="90" height="50" as="geometry" />
        </mxCell>
        <mxCell id="H8AvOMiR97W-gZ_kD2Oq-3" style="edgeStyle=orthogonalEdgeStyle;rounded=0;orthogonalLoop=1;jettySize=auto;html=1;" edge="1" parent="1aZD1OsogRXmvRE20P_B-13" source="1aZD1OsogRXmvRE20P_B-14">
          <mxGeometry relative="1" as="geometry">
            <mxPoint x="-215" y="61" as="targetPoint" />
            <Array as="points">
              <mxPoint x="-214" y="35" />
              <mxPoint x="-214" y="61" />
            </Array>
          </mxGeometry>
        </mxCell>
        <mxCell id="1aZD1OsogRXmvRE20P_B-14" value="Quản lí tài sản" style="text;html=1;align=center;verticalAlign=middle;whiteSpace=wrap;rounded=0;" parent="1aZD1OsogRXmvRE20P_B-13" vertex="1">
          <mxGeometry y="20" width="90" height="30" as="geometry" />
        </mxCell>
        <mxCell id="1aZD1OsogRXmvRE20P_B-73" style="edgeStyle=orthogonalEdgeStyle;rounded=0;orthogonalLoop=1;jettySize=auto;html=1;entryX=0;entryY=0.5;entryDx=0;entryDy=0;" parent="1" source="1aZD1OsogRXmvRE20P_B-15" target="1aZD1OsogRXmvRE20P_B-60" edge="1">
          <mxGeometry relative="1" as="geometry">
            <mxPoint x="400" y="680" as="targetPoint" />
          </mxGeometry>
        </mxCell>
        <mxCell id="1aZD1OsogRXmvRE20P_B-84" style="edgeStyle=orthogonalEdgeStyle;rounded=0;orthogonalLoop=1;jettySize=auto;html=1;entryX=0.5;entryY=1;entryDx=0;entryDy=0;" parent="1" source="1aZD1OsogRXmvRE20P_B-15" target="1aZD1OsogRXmvRE20P_B-14" edge="1">
          <mxGeometry relative="1" as="geometry">
            <mxPoint x="230" y="580" as="targetPoint" />
            <Array as="points">
              <mxPoint x="230" y="675" />
            </Array>
          </mxGeometry>
        </mxCell>
        <mxCell id="1aZD1OsogRXmvRE20P_B-15" value="3.0" style="swimlane;fontStyle=0;childLayout=stackLayout;horizontal=1;startSize=20;fillColor=#ffffff;horizontalStack=0;resizeParent=1;resizeParentMax=0;resizeLast=0;collapsible=0;marginBottom=0;swimlaneFillColor=#ffffff;rounded=1;glass=0;arcSize=50;" parent="1" vertex="1">
          <mxGeometry x="275" y="650" width="90" height="50" as="geometry" />
        </mxCell>
        <mxCell id="1aZD1OsogRXmvRE20P_B-17" value="Quản lí khách hàng" style="text;html=1;align=center;verticalAlign=middle;whiteSpace=wrap;rounded=0;" parent="1aZD1OsogRXmvRE20P_B-15" vertex="1">
          <mxGeometry y="20" width="90" height="30" as="geometry" />
        </mxCell>
        <mxCell id="H8AvOMiR97W-gZ_kD2Oq-10" style="edgeStyle=orthogonalEdgeStyle;rounded=0;orthogonalLoop=1;jettySize=auto;html=1;" edge="1" parent="1" source="1aZD1OsogRXmvRE20P_B-18">
          <mxGeometry relative="1" as="geometry">
            <mxPoint x="-10" y="440" as="targetPoint" />
          </mxGeometry>
        </mxCell>
        <mxCell id="1aZD1OsogRXmvRE20P_B-18" value="5.0" style="swimlane;fontStyle=0;childLayout=stackLayout;horizontal=1;startSize=20;fillColor=#ffffff;horizontalStack=0;resizeParent=1;resizeParentMax=0;resizeLast=0;collapsible=0;marginBottom=0;swimlaneFillColor=#ffffff;rounded=1;glass=0;arcSize=50;" parent="1" vertex="1">
          <mxGeometry x="90" y="440" width="90" height="50" as="geometry" />
        </mxCell>
        <mxCell id="1aZD1OsogRXmvRE20P_B-19" value="Bảo vệ an ninh" style="text;html=1;align=center;verticalAlign=middle;whiteSpace=wrap;rounded=0;" parent="1aZD1OsogRXmvRE20P_B-18" vertex="1">
          <mxGeometry y="20" width="90" height="30" as="geometry" />
        </mxCell>
        <mxCell id="1aZD1OsogRXmvRE20P_B-65" style="edgeStyle=orthogonalEdgeStyle;rounded=0;orthogonalLoop=1;jettySize=auto;html=1;entryX=1;entryY=0.5;entryDx=0;entryDy=0;" parent="1" source="1aZD1OsogRXmvRE20P_B-23" target="1aZD1OsogRXmvRE20P_B-54" edge="1">
          <mxGeometry relative="1" as="geometry" />
        </mxCell>
        <mxCell id="1aZD1OsogRXmvRE20P_B-66" style="edgeStyle=orthogonalEdgeStyle;rounded=0;orthogonalLoop=1;jettySize=auto;html=1;entryX=1;entryY=0.25;entryDx=0;entryDy=0;" parent="1" source="1aZD1OsogRXmvRE20P_B-23" target="1aZD1OsogRXmvRE20P_B-64" edge="1">
          <mxGeometry relative="1" as="geometry">
            <Array as="points">
              <mxPoint x="640" y="568" />
            </Array>
          </mxGeometry>
        </mxCell>
        <mxCell id="1aZD1OsogRXmvRE20P_B-68" style="edgeStyle=orthogonalEdgeStyle;rounded=0;orthogonalLoop=1;jettySize=auto;html=1;entryX=0.5;entryY=0;entryDx=0;entryDy=0;" parent="1" source="1aZD1OsogRXmvRE20P_B-23" target="1aZD1OsogRXmvRE20P_B-60" edge="1">
          <mxGeometry relative="1" as="geometry">
            <mxPoint x="510" y="630" as="targetPoint" />
          </mxGeometry>
        </mxCell>
        <mxCell id="1aZD1OsogRXmvRE20P_B-23" value="2.0" style="swimlane;fontStyle=0;childLayout=stackLayout;horizontal=1;startSize=20;fillColor=#ffffff;horizontalStack=0;resizeParent=1;resizeParentMax=0;resizeLast=0;collapsible=0;marginBottom=0;swimlaneFillColor=#ffffff;rounded=1;glass=0;arcSize=50;" parent="1" vertex="1">
          <mxGeometry x="610" y="605" width="90" height="50" as="geometry" />
        </mxCell>
        <mxCell id="1aZD1OsogRXmvRE20P_B-24" value="Quản lí tài chính" style="text;html=1;align=center;verticalAlign=middle;whiteSpace=wrap;rounded=0;" parent="1aZD1OsogRXmvRE20P_B-23" vertex="1">
          <mxGeometry y="20" width="90" height="30" as="geometry" />
        </mxCell>
        <mxCell id="1aZD1OsogRXmvRE20P_B-31" value="&lt;font style=&quot;font-size: 9px;&quot;&gt;Yêu cầu thuê nhà&lt;/font&gt;" style="text;html=1;align=center;verticalAlign=middle;whiteSpace=wrap;rounded=0;" parent="1" vertex="1">
          <mxGeometry x="510" y="240" width="90" height="10" as="geometry" />
        </mxCell>
        <mxCell id="1aZD1OsogRXmvRE20P_B-36" value="&lt;font style=&quot;font-size: 9px;&quot;&gt;Hợp đồng&lt;/font&gt;" style="text;html=1;align=center;verticalAlign=middle;whiteSpace=wrap;rounded=0;" parent="1" vertex="1">
          <mxGeometry x="480" y="310" width="90" height="10" as="geometry" />
        </mxCell>
        <mxCell id="1aZD1OsogRXmvRE20P_B-39" value="&lt;font style=&quot;font-size: 9px;&quot;&gt;CCCD, giấy tờ&lt;/font&gt;" style="text;html=1;align=center;verticalAlign=middle;whiteSpace=wrap;rounded=0;" parent="1" vertex="1">
          <mxGeometry x="510" y="270" width="90" height="10" as="geometry" />
        </mxCell>
        <mxCell id="1aZD1OsogRXmvRE20P_B-40" style="edgeStyle=orthogonalEdgeStyle;rounded=0;orthogonalLoop=1;jettySize=auto;html=1;entryX=0.581;entryY=1.009;entryDx=0;entryDy=0;entryPerimeter=0;" parent="1" source="1aZD1OsogRXmvRE20P_B-12" target="1aZD1OsogRXmvRE20P_B-1" edge="1">
          <mxGeometry relative="1" as="geometry" />
        </mxCell>
        <mxCell id="1aZD1OsogRXmvRE20P_B-42" value="&lt;font style=&quot;font-size: 9px;&quot;&gt;Thông báo còn phòng&lt;/font&gt;" style="text;html=1;align=center;verticalAlign=middle;whiteSpace=wrap;rounded=0;" parent="1" vertex="1">
          <mxGeometry x="470" y="340" width="90" height="10" as="geometry" />
        </mxCell>
        <mxCell id="1aZD1OsogRXmvRE20P_B-44" style="edgeStyle=orthogonalEdgeStyle;rounded=0;orthogonalLoop=1;jettySize=auto;html=1;entryX=0.25;entryY=1;entryDx=0;entryDy=0;" parent="1" source="1aZD1OsogRXmvRE20P_B-12" target="1aZD1OsogRXmvRE20P_B-1" edge="1">
          <mxGeometry relative="1" as="geometry">
            <Array as="points">
              <mxPoint x="623" y="390" />
              <mxPoint x="394" y="390" />
            </Array>
          </mxGeometry>
        </mxCell>
        <mxCell id="1aZD1OsogRXmvRE20P_B-45" value="&lt;font style=&quot;font-size: 9px;&quot;&gt;Thông báo không còn phòng&lt;/font&gt;" style="text;html=1;align=center;verticalAlign=middle;whiteSpace=wrap;rounded=0;" parent="1" vertex="1">
          <mxGeometry x="435" y="370" width="120" height="10" as="geometry" />
        </mxCell>
        <mxCell id="1aZD1OsogRXmvRE20P_B-47" value="a." style="html=1;dashed=0;whiteSpace=wrap;shape=mxgraph.dfd.dataStoreID;align=left;spacingLeft=3;points=[[0,0],[0.5,0],[1,0],[0,0.5],[1,0.5],[0,1],[0.5,1],[1,1]];" parent="1" vertex="1">
          <mxGeometry x="565" y="410" width="130" height="30" as="geometry" />
        </mxCell>
        <mxCell id="yD9X1X1SuLmKjkcs-DvC-8" style="edgeStyle=orthogonalEdgeStyle;rounded=0;orthogonalLoop=1;jettySize=auto;html=1;entryX=0.75;entryY=1;entryDx=0;entryDy=0;" parent="1" source="1aZD1OsogRXmvRE20P_B-48" target="1aZD1OsogRXmvRE20P_B-12" edge="1">
          <mxGeometry relative="1" as="geometry">
            <Array as="points">
              <mxPoint x="644" y="390" />
            </Array>
          </mxGeometry>
        </mxCell>
        <mxCell id="1aZD1OsogRXmvRE20P_B-48" value="Danh sách nhà" style="text;html=1;align=center;verticalAlign=middle;whiteSpace=wrap;rounded=0;" parent="1" vertex="1">
          <mxGeometry x="600" y="410" width="90" height="30" as="geometry" />
        </mxCell>
        <mxCell id="H8AvOMiR97W-gZ_kD2Oq-1" style="edgeStyle=orthogonalEdgeStyle;rounded=0;orthogonalLoop=1;jettySize=auto;html=1;" edge="1" parent="1" source="1aZD1OsogRXmvRE20P_B-49" target="1aZD1OsogRXmvRE20P_B-15">
          <mxGeometry relative="1" as="geometry">
            <Array as="points">
              <mxPoint x="740" y="460" />
              <mxPoint x="740" y="830" />
              <mxPoint x="320" y="830" />
            </Array>
          </mxGeometry>
        </mxCell>
        <mxCell id="H8AvOMiR97W-gZ_kD2Oq-9" style="edgeStyle=orthogonalEdgeStyle;rounded=0;orthogonalLoop=1;jettySize=auto;html=1;entryX=0.75;entryY=0;entryDx=0;entryDy=0;" edge="1" parent="1" source="1aZD1OsogRXmvRE20P_B-49" target="1aZD1OsogRXmvRE20P_B-18">
          <mxGeometry relative="1" as="geometry">
            <Array as="points">
              <mxPoint x="500" y="465" />
              <mxPoint x="500" y="430" />
              <mxPoint x="158" y="430" />
            </Array>
          </mxGeometry>
        </mxCell>
        <mxCell id="1aZD1OsogRXmvRE20P_B-49" value="b." style="html=1;dashed=0;whiteSpace=wrap;shape=mxgraph.dfd.dataStoreID;align=left;spacingLeft=3;points=[[0,0],[0.5,0],[1,0],[0,0.5],[1,0.5],[0,1],[0.5,1],[1,1]];" parent="1" vertex="1">
          <mxGeometry x="535" y="450" width="130" height="30" as="geometry" />
        </mxCell>
        <mxCell id="1aZD1OsogRXmvRE20P_B-62" style="edgeStyle=orthogonalEdgeStyle;rounded=0;orthogonalLoop=1;jettySize=auto;html=1;entryX=1;entryY=0.5;entryDx=0;entryDy=0;" parent="1" source="1aZD1OsogRXmvRE20P_B-50" target="1aZD1OsogRXmvRE20P_B-24" edge="1">
          <mxGeometry relative="1" as="geometry">
            <Array as="points">
              <mxPoint x="720" y="470" />
              <mxPoint x="720" y="640" />
            </Array>
          </mxGeometry>
        </mxCell>
        <mxCell id="1aZD1OsogRXmvRE20P_B-50" value="Danh sách khách" style="text;html=1;align=center;verticalAlign=middle;whiteSpace=wrap;rounded=0;" parent="1" vertex="1">
          <mxGeometry x="565" y="450" width="100" height="30" as="geometry" />
        </mxCell>
        <mxCell id="1aZD1OsogRXmvRE20P_B-112" style="edgeStyle=orthogonalEdgeStyle;rounded=0;orthogonalLoop=1;jettySize=auto;html=1;entryX=1;entryY=0.5;entryDx=0;entryDy=0;" parent="1" source="1aZD1OsogRXmvRE20P_B-51" target="1aZD1OsogRXmvRE20P_B-103" edge="1">
          <mxGeometry relative="1" as="geometry">
            <Array as="points">
              <mxPoint x="520" y="440" />
              <mxPoint x="320" y="440" />
              <mxPoint x="320" y="335" />
            </Array>
          </mxGeometry>
        </mxCell>
        <mxCell id="1aZD1OsogRXmvRE20P_B-51" value="c." style="html=1;dashed=0;whiteSpace=wrap;shape=mxgraph.dfd.dataStoreID;align=left;spacingLeft=3;points=[[0,0],[0.5,0],[1,0],[0,0.5],[1,0.5],[0,1],[0.5,1],[1,1]];" parent="1" vertex="1">
          <mxGeometry x="500" y="485" width="150" height="30" as="geometry" />
        </mxCell>
        <mxCell id="yD9X1X1SuLmKjkcs-DvC-17" style="edgeStyle=orthogonalEdgeStyle;rounded=0;orthogonalLoop=1;jettySize=auto;html=1;entryX=0.912;entryY=1;entryDx=0;entryDy=0;entryPerimeter=0;" parent="1" source="1aZD1OsogRXmvRE20P_B-52" target="1aZD1OsogRXmvRE20P_B-12" edge="1">
          <mxGeometry relative="1" as="geometry">
            <Array as="points">
              <mxPoint x="770" y="490" />
              <mxPoint x="770" y="370" />
            </Array>
          </mxGeometry>
        </mxCell>
        <mxCell id="1aZD1OsogRXmvRE20P_B-52" value="Danh sách hợp đồng" style="text;html=1;align=center;verticalAlign=middle;whiteSpace=wrap;rounded=0;" parent="1" vertex="1">
          <mxGeometry x="535" y="485" width="120" height="30" as="geometry" />
        </mxCell>
        <mxCell id="1aZD1OsogRXmvRE20P_B-53" value="d." style="html=1;dashed=0;whiteSpace=wrap;shape=mxgraph.dfd.dataStoreID;align=left;spacingLeft=3;points=[[0,0],[0.5,0],[1,0],[0,0.5],[1,0.5],[0,1],[0.5,1],[1,1]];" parent="1" vertex="1">
          <mxGeometry x="480" y="520" width="150" height="30" as="geometry" />
        </mxCell>
        <mxCell id="1aZD1OsogRXmvRE20P_B-54" value="Phiếu thu" style="text;html=1;align=center;verticalAlign=middle;whiteSpace=wrap;rounded=0;" parent="1" vertex="1">
          <mxGeometry x="510" y="520" width="120" height="30" as="geometry" />
        </mxCell>
        <mxCell id="1aZD1OsogRXmvRE20P_B-55" style="edgeStyle=orthogonalEdgeStyle;rounded=0;orthogonalLoop=1;jettySize=auto;html=1;" parent="1" source="1aZD1OsogRXmvRE20P_B-12" edge="1">
          <mxGeometry relative="1" as="geometry">
            <mxPoint x="700" y="420" as="targetPoint" />
            <Array as="points">
              <mxPoint x="710" y="355" />
              <mxPoint x="710" y="420" />
            </Array>
          </mxGeometry>
        </mxCell>
        <mxCell id="1aZD1OsogRXmvRE20P_B-71" style="edgeStyle=orthogonalEdgeStyle;rounded=0;orthogonalLoop=1;jettySize=auto;html=1;entryX=0.678;entryY=1;entryDx=0;entryDy=0;entryPerimeter=0;" parent="1" source="1aZD1OsogRXmvRE20P_B-60" target="1aZD1OsogRXmvRE20P_B-24" edge="1">
          <mxGeometry relative="1" as="geometry">
            <mxPoint x="670" y="675" as="targetPoint" />
          </mxGeometry>
        </mxCell>
        <mxCell id="1aZD1OsogRXmvRE20P_B-76" style="edgeStyle=orthogonalEdgeStyle;rounded=0;orthogonalLoop=1;jettySize=auto;html=1;entryX=0.5;entryY=0;entryDx=0;entryDy=0;" parent="1" source="1aZD1OsogRXmvRE20P_B-60" target="1aZD1OsogRXmvRE20P_B-15" edge="1">
          <mxGeometry relative="1" as="geometry">
            <mxPoint x="390" y="620" as="targetPoint" />
            <Array as="points">
              <mxPoint x="470" y="630" />
              <mxPoint x="320" y="630" />
            </Array>
          </mxGeometry>
        </mxCell>
        <mxCell id="1aZD1OsogRXmvRE20P_B-89" style="edgeStyle=orthogonalEdgeStyle;rounded=0;orthogonalLoop=1;jettySize=auto;html=1;" parent="1" source="1aZD1OsogRXmvRE20P_B-60" target="1aZD1OsogRXmvRE20P_B-19" edge="1">
          <mxGeometry relative="1" as="geometry">
            <Array as="points">
              <mxPoint x="490" y="600" />
              <mxPoint x="290" y="600" />
              <mxPoint x="290" y="475" />
            </Array>
          </mxGeometry>
        </mxCell>
        <mxCell id="1aZD1OsogRXmvRE20P_B-60" value="Khách hàng" style="rounded=0;whiteSpace=wrap;html=1;" parent="1" vertex="1">
          <mxGeometry x="445" y="655" width="115" height="40" as="geometry" />
        </mxCell>
        <mxCell id="1aZD1OsogRXmvRE20P_B-63" value="e." style="html=1;dashed=0;whiteSpace=wrap;shape=mxgraph.dfd.dataStoreID;align=left;spacingLeft=3;points=[[0,0],[0.5,0],[1,0],[0,0.5],[1,0.5],[0,1],[0.5,1],[1,1]];" parent="1" vertex="1">
          <mxGeometry x="450" y="560" width="150" height="30" as="geometry" />
        </mxCell>
        <mxCell id="1aZD1OsogRXmvRE20P_B-64" value="Danh sách tiền nhà" style="text;html=1;align=center;verticalAlign=middle;whiteSpace=wrap;rounded=0;" parent="1" vertex="1">
          <mxGeometry x="480" y="560" width="120" height="30" as="geometry" />
        </mxCell>
        <mxCell id="1aZD1OsogRXmvRE20P_B-67" style="edgeStyle=orthogonalEdgeStyle;rounded=0;orthogonalLoop=1;jettySize=auto;html=1;entryX=0.822;entryY=0.047;entryDx=0;entryDy=0;entryPerimeter=0;" parent="1" source="1aZD1OsogRXmvRE20P_B-52" target="1aZD1OsogRXmvRE20P_B-23" edge="1">
          <mxGeometry relative="1" as="geometry">
            <Array as="points">
              <mxPoint x="684" y="510" />
            </Array>
          </mxGeometry>
        </mxCell>
        <mxCell id="1aZD1OsogRXmvRE20P_B-69" value="Phiếu thu" style="text;html=1;align=center;verticalAlign=middle;whiteSpace=wrap;rounded=0;" parent="1" vertex="1">
          <mxGeometry x="490" y="600" width="120" height="30" as="geometry" />
        </mxCell>
        <mxCell id="1aZD1OsogRXmvRE20P_B-72" value="&lt;font style=&quot;font-size: 9px;&quot;&gt;Thanh toán phiếu thu&lt;/font&gt;" style="text;html=1;align=center;verticalAlign=middle;whiteSpace=wrap;rounded=0;" parent="1" vertex="1">
          <mxGeometry x="545" y="675" width="120" height="20" as="geometry" />
        </mxCell>
        <mxCell id="1aZD1OsogRXmvRE20P_B-74" value="&lt;font style=&quot;font-size: 9px;&quot;&gt;Thông báo ưu đãi&lt;/font&gt;" style="text;html=1;align=center;verticalAlign=middle;whiteSpace=wrap;rounded=0;" parent="1" vertex="1">
          <mxGeometry x="372.5" y="640" width="55" height="30" as="geometry" />
        </mxCell>
        <mxCell id="1aZD1OsogRXmvRE20P_B-77" value="&lt;font style=&quot;font-size: 9px;&quot;&gt;Thông tin hỗ trợ&lt;/font&gt;" style="text;html=1;align=center;verticalAlign=middle;whiteSpace=wrap;rounded=0;" parent="1" vertex="1">
          <mxGeometry x="330" y="610" width="120" height="25" as="geometry" />
        </mxCell>
        <mxCell id="1aZD1OsogRXmvRE20P_B-85" value="&lt;font style=&quot;font-size: 9px;&quot;&gt;Thông tin bảo trì&lt;/font&gt;" style="text;html=1;align=center;verticalAlign=middle;whiteSpace=wrap;rounded=0;rotation=90;" parent="1" vertex="1">
          <mxGeometry x="200" y="610" width="90" height="30" as="geometry" />
        </mxCell>
        <mxCell id="1aZD1OsogRXmvRE20P_B-87" style="edgeStyle=orthogonalEdgeStyle;rounded=0;orthogonalLoop=1;jettySize=auto;html=1;" parent="1" source="1aZD1OsogRXmvRE20P_B-14" target="1aZD1OsogRXmvRE20P_B-60" edge="1">
          <mxGeometry relative="1" as="geometry">
            <Array as="points">
              <mxPoint x="160" y="555" />
              <mxPoint x="160" y="720" />
              <mxPoint x="503" y="720" />
            </Array>
          </mxGeometry>
        </mxCell>
        <mxCell id="1aZD1OsogRXmvRE20P_B-88" value="&lt;font style=&quot;font-size: 9px;&quot;&gt;Biên bản bảo trì&lt;/font&gt;" style="text;html=1;align=center;verticalAlign=middle;whiteSpace=wrap;rounded=0;" parent="1" vertex="1">
          <mxGeometry x="160" y="700" width="120" height="20" as="geometry" />
        </mxCell>
        <mxCell id="1aZD1OsogRXmvRE20P_B-90" value="&lt;font style=&quot;font-size: 9px;&quot;&gt;Thông tin sự cố&lt;/font&gt;" style="text;html=1;align=center;verticalAlign=middle;whiteSpace=wrap;rounded=0;" parent="1" vertex="1">
          <mxGeometry x="310" y="580" width="120" height="20" as="geometry" />
        </mxCell>
        <mxCell id="1aZD1OsogRXmvRE20P_B-91" style="edgeStyle=orthogonalEdgeStyle;rounded=0;orthogonalLoop=1;jettySize=auto;html=1;entryX=0.75;entryY=1;entryDx=0;entryDy=0;" parent="1" source="1aZD1OsogRXmvRE20P_B-18" target="1aZD1OsogRXmvRE20P_B-60" edge="1">
          <mxGeometry relative="1" as="geometry">
            <mxPoint x="479" y="700" as="targetPoint" />
            <Array as="points">
              <mxPoint x="135" y="760" />
              <mxPoint x="530" y="760" />
              <mxPoint x="530" y="700" />
              <mxPoint x="531" y="700" />
            </Array>
          </mxGeometry>
        </mxCell>
        <mxCell id="1aZD1OsogRXmvRE20P_B-92" value="&lt;font style=&quot;font-size: 9px;&quot;&gt;Biên bản sự cố&lt;/font&gt;" style="text;html=1;align=center;verticalAlign=middle;whiteSpace=wrap;rounded=0;" parent="1" vertex="1">
          <mxGeometry x="305" y="740" width="120" height="20" as="geometry" />
        </mxCell>
        <mxCell id="1aZD1OsogRXmvRE20P_B-94" value="&lt;font style=&quot;font-size: 9px;&quot;&gt;Hóa đơn bồi thường&lt;/font&gt;" style="text;html=1;align=center;verticalAlign=middle;whiteSpace=wrap;rounded=0;" parent="1" vertex="1">
          <mxGeometry x="130" y="770" width="120" height="20" as="geometry" />
        </mxCell>
        <mxCell id="1aZD1OsogRXmvRE20P_B-95" value="f." style="html=1;dashed=0;whiteSpace=wrap;shape=mxgraph.dfd.dataStoreID;align=left;spacingLeft=3;points=[[0,0],[0.5,0],[1,0],[0,0.5],[1,0.5],[0,1],[0.5,1],[1,1]];" parent="1" vertex="1">
          <mxGeometry x="300" y="510" width="150" height="30" as="geometry" />
        </mxCell>
        <mxCell id="1aZD1OsogRXmvRE20P_B-114" style="edgeStyle=orthogonalEdgeStyle;rounded=0;orthogonalLoop=1;jettySize=auto;html=1;entryX=0.75;entryY=1;entryDx=0;entryDy=0;" parent="1" source="1aZD1OsogRXmvRE20P_B-96" target="1aZD1OsogRXmvRE20P_B-103" edge="1">
          <mxGeometry relative="1" as="geometry">
            <Array as="points">
              <mxPoint x="400" y="460" />
              <mxPoint x="280" y="460" />
              <mxPoint x="280" y="370" />
              <mxPoint x="194" y="370" />
            </Array>
          </mxGeometry>
        </mxCell>
        <mxCell id="1aZD1OsogRXmvRE20P_B-96" value="Biên bản sự cố" style="text;html=1;align=center;verticalAlign=middle;whiteSpace=wrap;rounded=0;" parent="1" vertex="1">
          <mxGeometry x="340" y="510" width="120" height="30" as="geometry" />
        </mxCell>
        <mxCell id="1aZD1OsogRXmvRE20P_B-98" style="edgeStyle=orthogonalEdgeStyle;rounded=0;orthogonalLoop=1;jettySize=auto;html=1;entryX=0.092;entryY=-0.044;entryDx=0;entryDy=0;entryPerimeter=0;" parent="1" source="1aZD1OsogRXmvRE20P_B-18" target="1aZD1OsogRXmvRE20P_B-96" edge="1">
          <mxGeometry relative="1" as="geometry" />
        </mxCell>
        <mxCell id="yD9X1X1SuLmKjkcs-DvC-6" style="edgeStyle=orthogonalEdgeStyle;rounded=0;orthogonalLoop=1;jettySize=auto;html=1;entryX=0.5;entryY=1;entryDx=0;entryDy=0;" parent="1" source="1aZD1OsogRXmvRE20P_B-102" target="1aZD1OsogRXmvRE20P_B-116" edge="1">
          <mxGeometry relative="1" as="geometry">
            <Array as="points">
              <mxPoint x="173" y="280" />
              <mxPoint x="275" y="280" />
            </Array>
          </mxGeometry>
        </mxCell>
        <mxCell id="1aZD1OsogRXmvRE20P_B-102" value="6.0" style="swimlane;fontStyle=0;childLayout=stackLayout;horizontal=1;startSize=20;fillColor=#ffffff;horizontalStack=0;resizeParent=1;resizeParentMax=0;resizeLast=0;collapsible=0;marginBottom=0;swimlaneFillColor=#ffffff;rounded=1;glass=0;arcSize=50;" parent="1" vertex="1">
          <mxGeometry x="130" y="300" width="85" height="50" as="geometry" />
        </mxCell>
        <mxCell id="1aZD1OsogRXmvRE20P_B-103" value="Báo cáo" style="text;html=1;align=center;verticalAlign=middle;whiteSpace=wrap;rounded=0;" parent="1aZD1OsogRXmvRE20P_B-102" vertex="1">
          <mxGeometry y="20" width="85" height="30" as="geometry" />
        </mxCell>
        <mxCell id="1aZD1OsogRXmvRE20P_B-110" style="edgeStyle=orthogonalEdgeStyle;rounded=0;orthogonalLoop=1;jettySize=auto;html=1;entryX=0.976;entryY=0.153;entryDx=0;entryDy=0;entryPerimeter=0;" parent="1" source="1aZD1OsogRXmvRE20P_B-47" target="1aZD1OsogRXmvRE20P_B-102" edge="1">
          <mxGeometry relative="1" as="geometry">
            <Array as="points">
              <mxPoint x="630" y="400" />
              <mxPoint x="360" y="400" />
              <mxPoint x="360" y="308" />
            </Array>
          </mxGeometry>
        </mxCell>
        <mxCell id="1aZD1OsogRXmvRE20P_B-111" style="edgeStyle=orthogonalEdgeStyle;rounded=0;orthogonalLoop=1;jettySize=auto;html=1;entryX=1.055;entryY=0.144;entryDx=0;entryDy=0;entryPerimeter=0;" parent="1" source="1aZD1OsogRXmvRE20P_B-49" target="1aZD1OsogRXmvRE20P_B-103" edge="1">
          <mxGeometry relative="1" as="geometry">
            <Array as="points">
              <mxPoint x="540" y="420" />
              <mxPoint x="340" y="420" />
              <mxPoint x="340" y="324" />
            </Array>
          </mxGeometry>
        </mxCell>
        <mxCell id="1aZD1OsogRXmvRE20P_B-113" style="edgeStyle=orthogonalEdgeStyle;rounded=0;orthogonalLoop=1;jettySize=auto;html=1;entryX=0.922;entryY=1.011;entryDx=0;entryDy=0;entryPerimeter=0;" parent="1" source="1aZD1OsogRXmvRE20P_B-63" target="1aZD1OsogRXmvRE20P_B-103" edge="1">
          <mxGeometry relative="1" as="geometry">
            <Array as="points">
              <mxPoint x="470" y="450" />
              <mxPoint x="300" y="450" />
              <mxPoint x="300" y="350" />
            </Array>
          </mxGeometry>
        </mxCell>
        <mxCell id="1aZD1OsogRXmvRE20P_B-115" value="L." style="html=1;dashed=0;whiteSpace=wrap;shape=mxgraph.dfd.dataStoreID;align=left;spacingLeft=3;points=[[0,0],[0.5,0],[1,0],[0,0.5],[1,0.5],[0,1],[0.5,1],[1,1]];" parent="1" vertex="1">
          <mxGeometry x="185" y="215" width="150" height="30" as="geometry" />
        </mxCell>
        <mxCell id="1aZD1OsogRXmvRE20P_B-116" value="Danh sách báo cáo" style="text;html=1;align=center;verticalAlign=middle;whiteSpace=wrap;rounded=0;" parent="1" vertex="1">
          <mxGeometry x="220" y="215" width="110" height="30" as="geometry" />
        </mxCell>
        <mxCell id="yD9X1X1SuLmKjkcs-DvC-1" style="edgeStyle=orthogonalEdgeStyle;rounded=0;orthogonalLoop=1;jettySize=auto;html=1;" parent="1" source="1aZD1OsogRXmvRE20P_B-103" target="1aZD1OsogRXmvRE20P_B-2" edge="1">
          <mxGeometry relative="1" as="geometry">
            <Array as="points">
              <mxPoint x="110" y="335" />
            </Array>
          </mxGeometry>
        </mxCell>
        <mxCell id="yD9X1X1SuLmKjkcs-DvC-3" style="edgeStyle=orthogonalEdgeStyle;rounded=0;orthogonalLoop=1;jettySize=auto;html=1;entryX=0.896;entryY=1.075;entryDx=0;entryDy=0;entryPerimeter=0;" parent="1" source="1aZD1OsogRXmvRE20P_B-4" target="1aZD1OsogRXmvRE20P_B-1" edge="1">
          <mxGeometry relative="1" as="geometry">
            <Array as="points">
              <mxPoint x="468" y="330" />
            </Array>
          </mxGeometry>
        </mxCell>
        <mxCell id="yD9X1X1SuLmKjkcs-DvC-10" value="&lt;font style=&quot;font-size: 9px;&quot;&gt;Yêu cầu gia hạn hợp đồng&lt;/font&gt;" style="text;html=1;align=center;verticalAlign=middle;whiteSpace=wrap;rounded=0;" parent="1" vertex="1">
          <mxGeometry x="510" y="200" width="110" height="10" as="geometry" />
        </mxCell>
        <mxCell id="yD9X1X1SuLmKjkcs-DvC-20" style="edgeStyle=orthogonalEdgeStyle;rounded=0;orthogonalLoop=1;jettySize=auto;html=1;entryX=0.5;entryY=1;entryDx=0;entryDy=0;" parent="1" source="yD9X1X1SuLmKjkcs-DvC-12" target="1aZD1OsogRXmvRE20P_B-103" edge="1">
          <mxGeometry relative="1" as="geometry">
            <Array as="points">
              <mxPoint x="115" y="370" />
              <mxPoint x="173" y="370" />
            </Array>
          </mxGeometry>
        </mxCell>
        <mxCell id="yD9X1X1SuLmKjkcs-DvC-12" value="g." style="html=1;dashed=0;whiteSpace=wrap;shape=mxgraph.dfd.dataStoreID;align=left;spacingLeft=3;points=[[0,0],[0.5,0],[1,0],[0,0.5],[1,0.5],[0,1],[0.5,1],[1,1]];" parent="1" vertex="1">
          <mxGeometry x="40" y="380" width="150" height="30" as="geometry" />
        </mxCell>
        <mxCell id="yD9X1X1SuLmKjkcs-DvC-13" value="Danh sách hoá đơn bồi thường" style="text;html=1;align=center;verticalAlign=middle;whiteSpace=wrap;rounded=0;" parent="1" vertex="1">
          <mxGeometry x="70" y="380" width="120" height="30" as="geometry" />
        </mxCell>
        <mxCell id="yD9X1X1SuLmKjkcs-DvC-15" style="edgeStyle=orthogonalEdgeStyle;rounded=0;orthogonalLoop=1;jettySize=auto;html=1;entryX=0.544;entryY=1.024;entryDx=0;entryDy=0;entryPerimeter=0;" parent="1" source="1aZD1OsogRXmvRE20P_B-18" target="yD9X1X1SuLmKjkcs-DvC-13" edge="1">
          <mxGeometry relative="1" as="geometry" />
        </mxCell>
        <mxCell id="yD9X1X1SuLmKjkcs-DvC-16" style="edgeStyle=orthogonalEdgeStyle;rounded=0;orthogonalLoop=1;jettySize=auto;html=1;exitX=0;exitY=0.5;exitDx=0;exitDy=0;" parent="1" source="1aZD1OsogRXmvRE20P_B-19" target="1aZD1OsogRXmvRE20P_B-60" edge="1">
          <mxGeometry relative="1" as="geometry">
            <Array as="points">
              <mxPoint x="90" y="790" />
              <mxPoint x="470" y="790" />
            </Array>
          </mxGeometry>
        </mxCell>
        <mxCell id="DDauoUN82rla9Vkt90J--2" style="edgeStyle=orthogonalEdgeStyle;rounded=0;orthogonalLoop=1;jettySize=auto;html=1;entryX=0.5;entryY=1;entryDx=0;entryDy=0;" parent="1" source="1aZD1OsogRXmvRE20P_B-14" target="1aZD1OsogRXmvRE20P_B-24" edge="1">
          <mxGeometry relative="1" as="geometry">
            <Array as="points">
              <mxPoint x="260" y="810" />
              <mxPoint x="655" y="810" />
            </Array>
          </mxGeometry>
        </mxCell>
        <mxCell id="DDauoUN82rla9Vkt90J--3" value="&lt;font size=&quot;1&quot;&gt;Hoá đơn chi phí bảo trì&lt;/font&gt;" style="text;html=1;align=center;verticalAlign=middle;whiteSpace=wrap;rounded=0;" parent="1" vertex="1">
          <mxGeometry x="505" y="790" width="120" height="20" as="geometry" />
        </mxCell>
        <mxCell id="DDauoUN82rla9Vkt90J--4" value="h." style="html=1;dashed=0;whiteSpace=wrap;shape=mxgraph.dfd.dataStoreID;align=left;spacingLeft=3;points=[[0,0],[0.5,0],[1,0],[0,0.5],[1,0.5],[0,1],[0.5,1],[1,1]];" parent="1" vertex="1">
          <mxGeometry x="-90" y="480" width="150" height="30" as="geometry" />
        </mxCell>
        <mxCell id="DDauoUN82rla9Vkt90J--6" style="edgeStyle=orthogonalEdgeStyle;rounded=0;orthogonalLoop=1;jettySize=auto;html=1;entryX=0.433;entryY=1.1;entryDx=0;entryDy=0;entryPerimeter=0;" parent="1" source="1aZD1OsogRXmvRE20P_B-14" target="DDauoUN82rla9Vkt90J--4" edge="1">
          <mxGeometry relative="1" as="geometry">
            <Array as="points">
              <mxPoint x="-25" y="540" />
            </Array>
          </mxGeometry>
        </mxCell>
        <mxCell id="DDauoUN82rla9Vkt90J--10" style="edgeStyle=orthogonalEdgeStyle;rounded=0;orthogonalLoop=1;jettySize=auto;html=1;" parent="1" source="DDauoUN82rla9Vkt90J--7" target="1aZD1OsogRXmvRE20P_B-103" edge="1">
          <mxGeometry relative="1" as="geometry">
            <mxPoint y="320" as="targetPoint" />
            <Array as="points">
              <mxPoint x="10" y="320" />
            </Array>
          </mxGeometry>
        </mxCell>
        <mxCell id="DDauoUN82rla9Vkt90J--7" value="Danh sách hoá đơn chi phí bảo trì" style="text;html=1;align=center;verticalAlign=middle;whiteSpace=wrap;rounded=0;" parent="1" vertex="1">
          <mxGeometry x="-60" y="480" width="120" height="30" as="geometry" />
        </mxCell>
        <mxCell id="H8AvOMiR97W-gZ_kD2Oq-5" value="i." style="html=1;dashed=0;whiteSpace=wrap;shape=mxgraph.dfd.dataStoreID;align=left;spacingLeft=3;points=[[0,0],[0.5,0],[1,0],[0,0.5],[1,0.5],[0,1],[0.5,1],[1,1]];" vertex="1" parent="1">
          <mxGeometry x="-90" y="580" width="150" height="30" as="geometry" />
        </mxCell>
        <mxCell id="H8AvOMiR97W-gZ_kD2Oq-6" value="Báo cáo bảo trì" style="text;html=1;align=center;verticalAlign=middle;whiteSpace=wrap;rounded=0;" vertex="1" parent="1">
          <mxGeometry x="-70" y="580" width="120" height="30" as="geometry" />
        </mxCell>
        <mxCell id="H8AvOMiR97W-gZ_kD2Oq-12" value="k." style="html=1;dashed=0;whiteSpace=wrap;shape=mxgraph.dfd.dataStoreID;align=left;spacingLeft=3;points=[[0,0],[0.5,0],[1,0],[0,0.5],[1,0.5],[0,1],[0.5,1],[1,1]];" vertex="1" parent="1">
          <mxGeometry x="-160" y="430" width="150" height="30" as="geometry" />
        </mxCell>
        <mxCell id="H8AvOMiR97W-gZ_kD2Oq-13" value="Thông tin tài sản và sinh trắc" style="text;html=1;align=center;verticalAlign=middle;whiteSpace=wrap;rounded=0;" vertex="1" parent="1">
          <mxGeometry x="-130" y="430" width="120" height="30" as="geometry" />
        </mxCell>
      </root>
    </mxGraphModel>
  </diagram>
</mxfile>
